<svg xmlns="http://www.w3.org/2000/svg" width="840" height="232" viewBox="0 0 840 232" role="img" aria-labelledby="title description">
<title id="title">Recent GitHub activity</title>
<desc id="description">220 contributions over 30 completed days. 2026-09-07: 0; 2026-09-08: 4; 2026-09-09: 1; 2026-09-10: 14; 2026-09-11: 8; 2026-09-12: 3; 2026-09-13: 4; 2026-09-14: 0; 2026-09-15: 1; 2026-09-16: 0; 2026-09-17: 1; 2026-09-18: 0; 2026-09-19: 0; 2026-09-20: 0; 2026-09-21: 4; 2026-09-22: 1; 2026-09-23: 0; 2026-09-24: 0; 2026-09-25: 0; 2026-09-26: 5; 2026-09-27: 0; 2026-09-28: 30; 2026-09-29: 33; 2026-09-30: 24; 2026-10-01: 2; 2026-10-02: 37; 2026-10-03: 37; 2026-10-04: 3; 2026-10-05: 3; 2026-10-06: 5</desc>
<g font-family="-apple-system, BlinkMacSystemFont, Segoe UI, sans-serif">
<text x="12" y="26" fill="#1f2328" font-size="18" font-weight="600">Recent GitHub activity</text>
<text x="12" y="49" fill="#59636e" font-size="12">07 Sep 2026 – 06 Oct 2026 · UTC</text>
<text x="818" y="26" text-anchor="end" fill="#59636e" font-size="13">220 contributions</text>
<path d="M 46 192.00 H 818" stroke="#d1d9e0" stroke-opacity="0.5"/>
<text x="36" y="196.00" text-anchor="end" fill="#59636e" font-size="11">0</text>
<path d="M 46 163.00 H 818" stroke="#d1d9e0" stroke-opacity="0.5"/>
<text x="36" y="167.00" text-anchor="end" fill="#59636e" font-size="11">10</text>
<path d="M 46 134.00 H 818" stroke="#d1d9e0" stroke-opacity="0.5"/>
<text x="36" y="138.00" text-anchor="end" fill="#59636e" font-size="11">20</text>
<path d="M 46 105.00 H 818" stroke="#d1d9e0" stroke-opacity="0.5"/>
<text x="36" y="109.00" text-anchor="end" fill="#59636e" font-size="11">30</text>
<path d="M 46 76.00 H 818" stroke="#d1d9e0" stroke-opacity="0.5"/>
<text x="36" y="80.00" text-anchor="end" fill="#59636e" font-size="11">40</text>
<polygon points="46,192 46.00,192.00 72.62,180.40 99.24,189.10 125.86,151.40 152.48,168.80 179.10,183.30 205.72,180.40 232.34,192.00 258.97,189.10 285.59,192.00 312.21,189.10 338.83,192.00 365.45,192.00 392.07,192.00 418.69,180.40 445.31,189.10 471.93,192.00 498.55,192.00 525.17,192.00 551.79,177.50 578.41,192.00 605.03,105.00 631.66,96.30 658.28,122.40 684.90,186.20 711.52,84.70 738.14,84.70 764.76,183.30 791.38,183.30 818.00,177.50 818,192" fill="#1a7f37" fill-opacity="0.08"/>
<polyline points="46.00,192.00 72.62,180.40 99.24,189.10 125.86,151.40 152.48,168.80 179.10,183.30 205.72,180.40 232.34,192.00 258.97,189.10 285.59,192.00 312.21,189.10 338.83,192.00 365.45,192.00 392.07,192.00 418.69,180.40 445.31,189.10 471.93,192.00 498.55,192.00 525.17,192.00 551.79,177.50 578.41,192.00 605.03,105.00 631.66,96.30 658.28,122.40 684.90,186.20 711.52,84.70 738.14,84.70 764.76,183.30 791.38,183.30 818.00,177.50" fill="none" stroke="#1a7f37" stroke-width="2.5" stroke-linejoin="round" stroke-linecap="round"/>
<circle cx="46.00" cy="192.00" r="2.5" fill="#1a7f37"><title>2026-09-07: 0 contributions</title></circle>
<circle cx="72.62" cy="180.40" r="2.5" fill="#1a7f37"><title>2026-09-08: 4 contributions</title></circle>
<circle cx="99.24" cy="189.10" r="2.5" fill="#1a7f37"><title>2026-09-09: 1 contributions</title></circle>
<circle cx="125.86" cy="151.40" r="2.5" fill="#1a7f37"><title>2026-09-10: 14 contributions</title></circle>
<circle cx="152.48" cy="168.80" r="2.5" fill="#1a7f37"><title>2026-09-11: 8 contributions</title></circle>
<circle cx="179.10" cy="183.30" r="2.5" fill="#1a7f37"><title>2026-09-12: 3 contributions</title></circle>
<circle cx="205.72" cy="180.40" r="2.5" fill="#1a7f37"><title>2026-09-13: 4 contributions</title></circle>
<circle cx="232.34" cy="192.00" r="2.5" fill="#1a7f37"><title>2026-09-14: 0 contributions</title></circle>
<circle cx="258.97" cy="189.10" r="2.5" fill="#1a7f37"><title>2026-09-15: 1 contributions</title></circle>
<circle cx="285.59" cy="192.00" r="2.5" fill="#1a7f37"><title>2026-09-16: 0 contributions</title></circle>
<circle cx="312.21" cy="189.10" r="2.5" fill="#1a7f37"><title>2026-09-17: 1 contributions</title></circle>
<circle cx="338.83" cy="192.00" r="2.5" fill="#1a7f37"><title>2026-09-18: 0 contributions</title></circle>
<circle cx="365.45" cy="192.00" r="2.5" fill="#1a7f37"><title>2026-09-19: 0 contributions</title></circle>
<circle cx="392.07" cy="192.00" r="2.5" fill="#1a7f37"><title>2026-09-20: 0 contributions</title></circle>
<circle cx="418.69" cy="180.40" r="2.5" fill="#1a7f37"><title>2026-09-21: 4 contributions</title></circle>
<circle cx="445.31" cy="189.10" r="2.5" fill="#1a7f37"><title>2026-09-22: 1 contributions</title></circle>
<circle cx="471.93" cy="192.00" r="2.5" fill="#1a7f37"><title>2026-09-23: 0 contributions</title></circle>
<circle cx="498.55" cy="192.00" r="2.5" fill="#1a7f37"><title>2026-09-24: 0 contributions</title></circle>
<circle cx="525.17" cy="192.00" r="2.5" fill="#1a7f37"><title>2026-09-25: 0 contributions</title></circle>
<circle cx="551.79" cy="177.50" r="2.5" fill="#1a7f37"><title>2026-09-26: 5 contributions</title></circle>
<circle cx="578.41" cy="192.00" r="2.5" fill="#1a7f37"><title>2026-09-27: 0 contributions</title></circle>
<circle cx="605.03" cy="105.00" r="2.5" fill="#1a7f37"><title>2026-09-28: 30 contributions</title></circle>
<circle cx="631.66" cy="96.30" r="2.5" fill="#1a7f37"><title>2026-09-29: 33 contributions</title></circle>
<circle cx="658.28" cy="122.40" r="2.5" fill="#1a7f37"><title>2026-09-30: 24 contributions</title></circle>
<circle cx="684.90" cy="186.20" r="2.5" fill="#1a7f37"><title>2026-10-01: 2 contributions</title></circle>
<circle cx="711.52" cy="84.70" r="2.5" fill="#1a7f37"><title>2026-10-02: 37 contributions</title></circle>
<circle cx="738.14" cy="84.70" r="2.5" fill="#1a7f37"><title>2026-10-03: 37 contributions</title></circle>
<circle cx="764.76" cy="183.30" r="2.5" fill="#1a7f37"><title>2026-10-04: 3 contributions</title></circle>
<circle cx="791.38" cy="183.30" r="2.5" fill="#1a7f37"><title>2026-10-05: 3 contributions</title></circle>
<circle cx="818.00" cy="177.50" r="2.5" fill="#1a7f37"><title>2026-10-06: 5 contributions</title></circle>
<text x="46.00" y="216" text-anchor="start" fill="#59636e" font-size="11">07 Sep</text>
<text x="232.34" y="216" text-anchor="middle" fill="#59636e" font-size="11">14 Sep</text>
<text x="418.69" y="216" text-anchor="middle" fill="#59636e" font-size="11">21 Sep</text>
<text x="605.03" y="216" text-anchor="middle" fill="#59636e" font-size="11">28 Sep</text>
<text x="818.00" y="216" text-anchor="end" fill="#59636e" font-size="11">06 Oct</text>
</g></svg>
